# xmcd
#
# Track frame offsets:
#	150
#	53162
#	76011
#	123937
#	140635
#	161861
#	178127
#	194101
#	205965
#	212207
#
# Disc length: 3267 seconds
#
# Revision: 0
# Processed by: cddbd v1.5.2PL0 Copyright (c) Steve Scherf et al.
# Submitted via: dBpowerAMP V4.0
#
DISCID=990cc10a
DTITLE=Prince - Rave Un2 The Year 2000
DYEAR=1900
DGENRE=
TTITLE0=12-Purple Rain
TTITLE1=13-The Christ
TTITLE2=14-Blues Medley
TTITLE3=15-Nothing Compares 2 U
TTITLE4=16-Take Me With U/Raspberry Beret
TTITLE5=17-Greatest Romance
TTITLE6=18-Baby Knows
TTITLE7=19-1999 Intro
TTITLE8=20-Baby I'm A Star
TTITLE9=21-1999
EXTD=
EXTT0=
EXTT1=
EXTT2=
EXTT3=
EXTT4=
EXTT5=
EXTT6=
EXTT7=
EXTT8=
EXTT9=
PLAYORDER=
